<svg width="1136.5" height="941.3" xmlns="http://www.w3.org/2000/svg" xmlns:xlink="http://www.w3.org/1999/xlink"><defs><symbol viewBox="0 0 24 23" fill="none" id="icon-4g">
<path d="M13.3443 11.3866C13.3443 11.7024 13.3443 12.0112 13.3443 12.3199C13.3615 12.5132 13.3896 12.7052 13.4285 12.8953C13.4567 13.077 13.5316 13.2483 13.6461 13.3922C13.7605 13.5362 13.9104 13.6479 14.0811 13.7163C14.3942 13.8588 14.7488 13.8813 15.0775 13.7795C15.2631 13.7256 15.4243 13.6091 15.5336 13.4497C15.6549 13.2972 15.7412 13.12 15.7862 12.9304C15.7967 12.8114 15.7967 12.6916 15.7862 12.5725C15.7862 12.4252 15.7862 12.2708 15.7862 12.1164C15.7862 11.962 15.7301 11.9199 15.5897 11.9199H14.888C14.6986 11.9199 14.6144 11.8357 14.6144 11.6533V11.2884C14.6144 11.12 14.6845 11.0568 14.853 11.0568H16.4178C16.4472 11.0548 16.4767 11.0591 16.5043 11.0692C16.532 11.0793 16.5573 11.0952 16.5784 11.1157C16.5996 11.1362 16.6162 11.1609 16.6272 11.1882C16.6382 11.2156 16.6434 11.2449 16.6423 11.2744C16.6423 11.4147 16.6423 11.5621 16.6423 11.7024C16.6552 12.1378 16.6435 12.5735 16.6072 13.0076C16.5589 13.3492 16.4289 13.6742 16.2283 13.9549C16.088 14.1374 15.9171 14.2941 15.7231 14.4181C15.4765 14.5773 15.1946 14.6737 14.9021 14.6987C14.5812 14.7387 14.2558 14.7221 13.9407 14.6496C13.8144 14.6496 13.7021 14.5514 13.5758 14.5023C13.3411 14.4136 13.1316 14.2691 12.9653 14.0812C12.7393 13.8398 12.5776 13.5454 12.4952 13.2251C12.3939 12.8071 12.3444 12.3782 12.3478 11.948C12.3478 11.3656 12.3478 10.7762 12.3478 10.1937C12.3595 9.84277 12.4307 9.49633 12.5583 9.1692C12.7035 8.79534 12.9705 8.48137 13.3162 8.27803C13.7197 8.03606 14.1867 7.92113 14.6565 7.94822C14.8946 7.95703 15.1305 7.99715 15.3582 8.06753C15.5759 8.12715 15.7794 8.22992 15.9566 8.36975C16.1338 8.50959 16.2811 8.68361 16.3897 8.8815C16.5364 9.17182 16.6201 9.48987 16.6353 9.81479C16.6394 9.84192 16.6375 9.8696 16.6298 9.89593C16.6221 9.92227 16.6088 9.94662 16.5908 9.96731C16.5728 9.98799 16.5505 10.0045 16.5255 10.0157C16.5004 10.027 16.4733 10.0326 16.4458 10.0323H16.0318C15.8775 10.0323 15.8143 9.96214 15.7932 9.80075C15.7729 9.66763 15.7424 9.53627 15.702 9.40779C15.6792 9.33051 15.6406 9.25882 15.5887 9.19721C15.5368 9.13561 15.4726 9.08546 15.4003 9.04992H15.3512C15.1803 8.94924 14.99 8.88592 14.7928 8.86415C14.5956 8.84238 14.3961 8.86263 14.2074 8.9236C14.027 8.96801 13.8617 9.05968 13.7285 9.18918C13.5953 9.31868 13.499 9.48135 13.4495 9.66041C13.3814 9.93397 13.3414 10.2138 13.3302 10.4955C13.3302 10.7972 13.3302 11.1059 13.3302 11.4077" fill="black" />
<path d="M9.24592 12.6219H9.94764C10.081 12.6219 10.1511 12.5657 10.1441 12.4465V9.95535C10.1441 9.84307 10.1441 9.73781 10.1441 9.62554C10.1441 9.51327 10.109 9.55537 10.095 9.52029C10.081 9.4852 10.0318 9.55537 10.0178 9.58344L9.87748 9.83607C9.66697 10.229 9.44942 10.622 9.23189 11.0149C9.12663 11.2114 9.02138 11.4149 8.90911 11.6114C8.79683 11.8079 8.59333 12.1587 8.43895 12.4394C8.4229 12.4848 8.4229 12.5344 8.43895 12.5798C8.43895 12.5798 8.52315 12.6219 8.56525 12.6219H9.26697M10.9722 10.3764V12.2149C10.9722 12.2991 10.9722 12.3763 10.9722 12.4605C10.9711 12.4826 10.9747 12.5046 10.9829 12.5252C10.9911 12.5457 11.0036 12.5643 11.0195 12.5796C11.0355 12.5949 11.0546 12.6066 11.0754 12.6139C11.0963 12.6212 11.1185 12.6239 11.1406 12.6219H11.4704C11.5034 12.6186 11.5368 12.6227 11.5681 12.6339C11.5994 12.6451 11.6278 12.6631 11.6513 12.6866C11.6748 12.71 11.6928 12.7385 11.704 12.7698C11.7151 12.801 11.7193 12.8344 11.716 12.8675V13.1482C11.716 13.3306 11.6248 13.4148 11.4353 13.4148H11.1195C11.1036 13.4128 11.0875 13.4142 11.0722 13.419C11.0569 13.4237 11.0428 13.4317 11.0309 13.4423C11.0189 13.4529 11.0094 13.466 11.0029 13.4806C10.9964 13.4952 10.9931 13.5111 10.9932 13.5271C10.9898 13.5668 10.9898 13.6067 10.9932 13.6464C10.9932 13.892 10.9932 14.1446 10.9932 14.3902C10.9963 14.4254 10.9918 14.4608 10.9799 14.4941C10.9681 14.5274 10.9492 14.5577 10.9245 14.583C10.8999 14.6084 10.87 14.6281 10.8371 14.6408C10.8041 14.6535 10.7688 14.659 10.7336 14.6569H10.4178C10.2494 14.6569 10.1722 14.5586 10.1722 14.3902C10.1722 14.2218 10.1722 13.8709 10.1722 13.6113C10.1722 13.3517 10.1371 13.4218 9.97571 13.4218H7.61093C7.58142 13.4277 7.55095 13.4264 7.52204 13.4181C7.49312 13.4098 7.46659 13.3948 7.44464 13.3742C7.4227 13.3536 7.40597 13.3281 7.39584 13.2998C7.38571 13.2715 7.38246 13.2411 7.38637 13.2113C7.38637 13.078 7.38637 12.9447 7.38637 12.8043C7.39743 12.6904 7.43861 12.5814 7.50568 12.4886L8.31265 11.0851L9.18277 9.55539L9.91958 8.25721C9.94332 8.19176 9.98946 8.13682 10.0498 8.10214C10.1102 8.06746 10.1809 8.05529 10.2494 8.06775C10.3897 8.06775 10.5371 8.06775 10.6774 8.06775C10.7086 8.06481 10.7401 8.06843 10.7698 8.07839C10.7996 8.08835 10.8269 8.10442 10.85 8.12557C10.8731 8.14672 10.8916 8.17249 10.9042 8.20121C10.9167 8.22992 10.9232 8.26094 10.923 8.29228C10.9265 8.34837 10.9265 8.40463 10.923 8.46071L10.9722 10.3764Z" fill="black" />
<path d="M16.0945 4.46112C16.9752 4.46065 17.8204 4.8088 18.4452 5.42949V5.42949C18.7537 5.73516 18.9982 6.09922 19.1645 6.50042C19.3308 6.90162 19.4155 7.33191 19.4136 7.7662M16.0664 0.868334C16.9784 0.86192 17.8825 1.03733 18.7259 1.38432C19.5692 1.73132 20.335 2.24294 20.9784 2.88928V2.88928C21.6241 3.53315 22.1353 4.29901 22.4823 5.1423C22.8292 5.98558 23.005 6.88944 22.9994 7.80129" stroke="black" stroke-linecap="round" stroke-linejoin="round" />
<path d="M7.76489 18.7689C7.32926 18.7729 6.89728 18.6892 6.49464 18.5228C6.092 18.3565 5.72695 18.1108 5.42116 17.8005V17.8005C5.1134 17.4928 4.86944 17.1274 4.70326 16.7252C4.53708 16.323 4.45196 15.892 4.45279 15.4568M7.807 22.3617C6.89503 22.3681 5.99094 22.1927 5.14755 21.8457C4.30416 21.4987 3.53838 20.9871 2.89498 20.3407V20.3407C2.25023 19.6965 1.74013 18.9304 1.39437 18.0871C1.04861 17.2438 0.874117 16.3401 0.881059 15.4287" stroke="black" stroke-linecap="round" stroke-linejoin="round" />
</symbol><symbol viewBox="0 0 16.2 9.8" id="icon-arrow">
<path d="M0,5.5h11.2c1.3,0,2.1-0.4,3.3-0.4v0.1c-2.4,1.1-3.3,2.4-4.1,3.7l1.1,0.9c1.2-2.1,2.5-3.5,4.8-4.6V4.6  c-2.3-1.1-3.6-2.4-4.8-4.6l-1.1,0.9c0.8,1.3,1.7,2.5,4.1,3.7v0.1c-1.2,0-2-0.4-3.3-0.4H0V5.5z" />
</symbol><symbol viewBox="0 0 18.2 5.8" id="icon-arrow-slider">
<polygon points="13.2 5.8 13.2 3.4 0 3.4 0 2.4 13.2 2.4 13.2 0 18.2 2.9" />
</symbol><symbol viewBox="0 0 14 22" fill="none" id="icon-bluetooth">
<path d="M1.06836 18.0351L12.9996 6.06071L7.80781 1.27588V11.2587M1.06836 4.29722L12.9996 16.2531L7.80781 21.0441V11.2587" stroke="black" stroke-linecap="round" stroke-linejoin="round" />
</symbol><symbol viewBox="0 0 30 24" id="icon-check">
<path d="m29.5 2.7-1 1.2c-2.5 2.9-5 5.9-7.8 8.5-1.2 1.1-2.5 2.2-3.7 3.3-2.8 2.4-5.7 4.9-7.8 7.8-0.2 0.3-0.5 0.4-0.8 0.4-0.2 0-0.4-0.1-0.6-0.2s-0.3-0.3-0.3-0.5c-0.1-0.1-0.2-0.2-0.2-0.4-0.4-1.7-1.7-3.3-2.9-5-0.5-0.7-1-1.3-1.4-1.9-0.9-1.4-1.4-2.6-1.9-3.9-0.1-0.4-0.3-0.8-0.5-1.2-0.2-0.5 0-1.2 0.6-1.4 0.5-0.2 1.1 0 1.4 0.6 0.2 0.5 0.3 0.9 0.5 1.3 0.5 1.3 0.9 2.3 1.7 3.5 0.2 0.6 0.7 1.2 1.1 1.9 1 1.3 2 2.7 2.7 4.1 2.1-2.5 4.6-4.6 7-6.7 1.2-1 2.5-2.1 3.6-3.2 2.8-2.6 5.2-5.5 7.7-8.4l1-1.2c0.4-0.4 1-0.5 1.5-0.1 0.4 0.4 0.5 1 0.1 1.5z" />
</symbol><symbol viewBox="0 0 23 22" fill="none" id="icon-colorscreen">
<path d="M15.602 21C16.8357 21 18.0417 20.6242 19.0676 19.92C20.0934 19.2159 20.8929 18.215 21.365 17.0441C21.8371 15.8732 21.9607 14.5847 21.72 13.3416C21.4793 12.0985 20.8852 10.9567 20.0128 10.0605C19.1404 9.16431 18.029 8.55397 16.8189 8.30671C15.6089 8.05945 14.3547 8.18635 13.2149 8.67138C12.0751 9.1564 11.1008 9.97775 10.4154 11.0316C9.73 12.0854 9.36415 13.3244 9.36415 14.5918C9.36318 15.4336 9.52387 16.2674 9.83701 17.0453C10.1501 17.8232 10.6096 18.53 11.189 19.1253C11.7684 19.7206 12.4565 20.1926 13.2137 20.5142C13.971 20.8359 14.7826 21.001 15.602 21V21ZM7.07768 21C8.31141 21 9.51745 20.6242 10.5433 19.92C11.5691 19.2159 12.3686 18.215 12.8407 17.0441C13.3128 15.8732 13.4364 14.5847 13.1957 13.3416C12.955 12.0985 12.3609 10.9567 11.4885 10.0605C10.6161 9.16431 9.50466 8.55397 8.29463 8.30671C7.08461 8.05945 5.83039 8.18635 4.69057 8.67138C3.55075 9.1564 2.57654 9.97775 1.89112 11.0316C1.20569 12.0854 0.839848 13.3244 0.839848 14.5918C0.838874 15.4336 0.999551 16.2674 1.31269 17.0453C1.62582 17.8232 2.08527 18.53 2.6647 19.1253C3.24413 19.7206 3.93217 20.1926 4.68942 20.5142C5.44667 20.8359 6.25825 21.001 7.07768 21V21ZM11.3398 13.8164C12.5736 13.8164 13.7796 13.4406 14.8054 12.7364C15.8312 12.0323 16.6307 11.0315 17.1029 9.86052C17.575 8.68957 17.6985 7.4011 17.4578 6.15803C17.2171 4.91496 16.623 3.77313 15.7507 2.87693C14.8783 1.98072 13.7668 1.3704 12.5568 1.12313C11.3468 0.875872 10.0925 1.00278 8.95273 1.4878C7.81292 1.97282 6.83868 2.79418 6.15326 3.848C5.46783 4.90182 5.10201 6.14079 5.10201 7.40821C5.10006 8.25067 5.26003 9.08523 5.57273 9.86404C5.88543 10.6429 6.34469 11.3506 6.92422 11.9466C7.50375 12.5427 8.19213 13.0154 8.94987 13.3375C9.7076 13.6597 10.5198 13.825 11.3398 13.824V13.8164Z" stroke="black" stroke-linecap="round" stroke-linejoin="round" />
</symbol><symbol id="icon-contact" viewBox="0 0 20 20">
<path d="M18,0H2C1.5,0,1,0.2,0.6,0.6C0.2,1,0,1.5,0,2v18l4-4h14c0.5,0,1-0.2,1.4-0.6C19.8,15,20,14.5,20,14V2
	C20,0.9,19.1,0,18,0z" />
</symbol><symbol viewBox="0 0 21 22" fill="none" id="icon-contactless">
<path d="M5.47048 2.76826C5.57081 2.26833 5.83812 1.8191 6.22705 1.4968C6.61597 1.1745 7.10257 0.998973 7.60426 1H15.6388C15.9251 1 16.2086 1.05735 16.473 1.16876C16.7375 1.28018 16.9778 1.44348 17.1802 1.64935C17.3827 1.85522 17.5432 2.09962 17.6528 2.3686C17.7623 2.63759 17.8187 2.92587 17.8187 3.21702V6.18419M17.8187 18.2405V18.783C17.8187 19.0741 17.7623 19.3624 17.6528 19.6314C17.5432 19.9004 17.3827 20.1448 17.1802 20.3507C16.9778 20.5565 16.7375 20.7198 16.473 20.8312C16.2086 20.9427 15.9251 21 15.6388 21H7.60426C7.02612 21 6.47165 20.7664 6.06285 20.3507C5.65404 19.9349 5.42438 19.371 5.42438 18.783V14.0409M4.17309 5.45412C3.97572 5.51994 3.79347 5.62568 3.63729 5.76495C3.48111 5.90422 3.35423 6.07417 3.26427 6.26457V6.26457C3.17312 6.45387 3.11978 6.65966 3.10734 6.87005C3.09491 7.08044 3.12362 7.29126 3.19182 7.4903M3.22474 3.51173C2.81454 3.65341 2.43585 3.87602 2.11038 4.1668C1.78491 4.45759 1.51906 4.81084 1.32806 5.2063V5.2063C0.948117 6.0059 0.896001 6.92623 1.18318 7.7649M6.18174 10.1293L10.0937 12.0717M6.87982 5.5144L17.1601 10.6249M15.7442 17.1152L4.75264 11.6497C4.65905 11.6033 4.57541 11.5385 4.50651 11.4591C4.43761 11.3797 4.38481 11.2873 4.35115 11.1871C4.31749 11.0869 4.30363 10.9809 4.31037 10.8752C4.31711 10.7696 4.34431 10.6663 4.39042 10.5713L7.4923 4.10114C7.58579 3.91016 7.74955 3.76439 7.94804 3.69542C8.14654 3.62646 8.36377 3.63988 8.5526 3.73276L19.5508 9.19826C19.6449 9.24407 19.7292 9.30839 19.7988 9.38752C19.8684 9.46664 19.9218 9.55901 19.9561 9.65927C19.9904 9.75953 20.0048 9.8657 19.9986 9.97166C19.9923 10.0776 19.9654 10.1813 19.9196 10.2766L16.8111 16.7401C16.7662 16.8368 16.7026 16.9233 16.6242 16.9944C16.5457 17.0656 16.454 17.12 16.3544 17.1544C16.2549 17.1887 16.1496 17.2024 16.0447 17.1945C15.9399 17.1866 15.8377 17.1574 15.7442 17.1085V17.1152Z" stroke="black" stroke-linecap="round" stroke-linejoin="round" />
</symbol><symbol viewBox="0 0 24 24" id="icon-cross">
<path d="m23.4 23.2c-0.2 0.1-0.4 0.2-0.6 0.2-0.3 0-0.6-0.2-0.9-0.4-2-2.8-4.7-5.1-7.3-7.4l-2.7-2.4c-0.6 0.6-1.3 1.1-1.9 1.7-2.6 2.2-5.3 4.6-7.3 7.4-0.2 0.3-0.5 0.4-0.8 0.4-0.2 0-0.4-0.1-0.6-0.2-0.5-0.3-0.6-1-0.2-1.5 2.2-3 5-5.4 7.7-7.7 0.6-0.5 1.1-1 1.7-1.5-2.5-2.3-4.7-4.8-6.7-7.3l-1-1.1c-0.3-0.4-0.3-1.1 0.2-1.4 0.4-0.4 1.1-0.3 1.5 0.1l0.9 1.1c2 2.4 4.2 4.9 6.5 7.2l0.1-0.1c2.6-2.4 4.9-5.2 7.2-7.8l0.9-1.1c0.4-0.4 1-0.5 1.5-0.1s0.5 1 0.1 1.5l-0.9 1.1c-2.3 2.7-4.7 5.5-7.3 8 0.8 0.8 1.7 1.5 2.5 2.2 2.7 2.3 5.5 4.7 7.7 7.7 0.3 0.4 0.1 1-0.3 1.4z" />
</symbol><symbol viewBox="0 0 18 16" fill="none" id="icon-ethernet">
<path d="M13.9859 5.00907V2.99135H11.9363V1.13965H9.29923H9.12044H6.48337V2.99135H4.43372V5.00907H1.41992V15.1934H9.12044H9.29923H16.9998V5.00907H13.9859Z" stroke="black" stroke-linecap="round" stroke-linejoin="round" />
<path d="M14.4018 12.9463V15.2003M11.8031 12.9463V15.2003M9.21068 12.9463V15.2003M6.61191 12.9463V15.2003M4.01953 12.9463V15.2003" stroke="black" stroke-linejoin="round" />
</symbol><symbol viewBox="0 0 10 11" id="icon-external">
<path d="m1.3 10.2-1-1 6.1-6.1c-0.6 0.1-1.1 0-1.7-0.2-0.5-0.1-1.1-0.5-1.7-1.2l0.9-0.9c0.6 0.6 1.2 0.9 1.9 1s1.6 0 2.5-0.4l0.8 0.8c-0.3 0.9-0.4 1.8-0.4 2.5 0.1 0.7 0.4 1.4 1 1.9l-1 0.9c-0.6-0.6-1-1.2-1.2-1.8-0.1-0.5-0.2-1.1-0.1-1.7l-6.1 6.2z" />
</symbol><symbol viewBox="0 0 30 30" id="icon-facebook">
<path d="m19.2 16.1 0.5-3.2h-3.1v-2.1c0-0.9 0.4-1.8 1.8-1.8h1.4v-2.8s-1.3-0.2-2.5-0.2c-2.6 0-4.3 1.6-4.3 4.4v2.5h-2.9v3.2h2.9v7.9h3.5v-7.9h2.7z" style="transform:translateY(-0.5px)" />
</symbol><symbol viewBox="0 0 32 14" fill="none" id="icon-fasttransaction">
<path d="M30.3777 1H12.5962C12.1267 1 11.7461 1.38061 11.7461 1.85011V12.3561C11.7461 12.8256 12.1267 13.2062 12.5962 13.2062H30.3777C30.8472 13.2062 31.2278 12.8256 31.2278 12.3561V1.85011C31.2278 1.38061 30.8472 1 30.3777 1Z" stroke="black" stroke-linecap="round" stroke-linejoin="round" />
<path d="M11.8379 4.25146H27.9617" stroke="black" stroke-linecap="round" stroke-linejoin="round" />
<path d="M13.7656 10.429H19.9006" stroke="black" stroke-linecap="round" stroke-linejoin="round" />
<path d="M9.43652 1.21948H2.83398" stroke="black" stroke-linecap="round" stroke-linejoin="round" />
<path d="M1 6.41235H7.81507" stroke="black" stroke-linecap="round" stroke-linejoin="round" />
<path d="M5.5957 12.866H8.35857" stroke="black" stroke-linecap="round" stroke-linejoin="round" />
<path d="M2.8125 9.48682H3.03211" stroke="black" stroke-width="1.05556" stroke-linecap="round" stroke-linejoin="round" />
<path d="M7.62305 3.70605H8.33147" stroke="black" stroke-linecap="round" stroke-linejoin="round" />
<path d="M9.13949 9.48682H5.27148" stroke="black" stroke-linecap="round" stroke-linejoin="round" />
</symbol><symbol viewBox="0 0 30 30" id="icon-instagram">
	<path d="m15 10.9c-2.2 0-4 1.8-4 4s1.8 4 4 4 4-1.8 4-4c0.1-2.1-1.8-4-4-4zm0 6.7c-1.4 0-2.6-1.2-2.6-2.6s1.2-2.6 2.6-2.6 2.6 1.2 2.6 2.6c0 1.5-1.1 2.6-2.6 2.6z" />
	<path d="m22.8 11.7c-0.1-1.3-0.4-2.4-1.3-3.3s-2-1.2-3.3-1.3-5.2-0.1-6.5 0-2.4 0.4-3.3 1.3-1.2 2-1.3 3.3-0.1 5.2 0 6.5 0.4 2.4 1.3 3.3 2 1.2 3.3 1.3 5.2 0.1 6.5 0 2.4-0.4 3.3-1.3 1.2-2 1.3-3.3c0.1-1.2 0.1-5.2 0-6.5zm-1.7 7.9c-0.2 0.7-0.8 1.2-1.5 1.5-1.1 0.4-3.5 0.3-4.6 0.3-1.2 0-3.6 0.1-4.6-0.3-0.7-0.3-1.2-0.8-1.5-1.5-0.4-1-0.3-3.5-0.3-4.6s-0.1-3.6 0.3-4.6c0.3-0.7 0.8-1.2 1.5-1.5 1-0.4 3.5-0.3 4.6-0.3s3.6-0.1 4.6 0.3c0.7 0.2 1.2 0.8 1.5 1.5 0.4 1.1 0.3 3.5 0.3 4.6 0.1 1.1 0.2 3.6-0.3 4.6z" />
	<path d="m19.2 9.8c-0.5 0-0.9 0.4-0.9 0.9s0.4 0.9 0.9 0.9 0.9-0.4 0.9-0.9c0.1-0.4-0.4-0.9-0.9-0.9z" />
</symbol><symbol id="icon-linkedin" viewBox="0 0 30 30">
<g style="transform: translateY(-1px);">
	<rect x="7.4" y="12.3" width="3.3" height="10.5" />
	<path d="M9,7.1C8,7.1,7.1,8,7.1,9c0,1.1,0.8,1.9,1.9,1.9c1.1,0,1.9-0.9,1.9-1.9C10.9,8,10,7.1,9,7.1z" />
	<path d="M18.9,12.1c-1.6,0-2.6,0.9-3.1,1.7h0v-1.4h-3.1v10.5h3.3v-5.2c0-1.4,0.2-2.7,1.9-2.7s1.7,1.5,1.7,2.8v5.1h3.2h0v-5.8
		C22.9,14.3,22.2,12.1,18.9,12.1z" />
</g>
</symbol><symbol viewBox="0 0 22 16" fill="none" id="icon-longrange">
<path d="M13.7203 6.07897C13.9983 6.35468 14.2187 6.68282 14.3688 7.04436C14.519 7.40591 14.5959 7.79366 14.595 8.18515V8.18515C14.5909 8.97248 14.2742 9.72594 13.7146 10.2798M15.9819 3.77713C16.5649 4.35341 17.0275 5.03993 17.3427 5.7967C17.6578 6.55347 17.8193 7.36538 17.8176 8.18515V8.18515C17.8156 9.00232 17.6518 9.81102 17.3358 10.5646C17.0197 11.3182 16.5576 12.0018 15.9762 12.5759M18.2262 1.50982C19.1084 2.38276 19.8079 3.42257 20.2841 4.56863C20.7603 5.7147 21.0037 6.94409 20.9999 8.18515V8.18515C21.0007 9.42475 20.7543 10.6521 20.2751 11.7953C19.7958 12.9385 19.0934 13.9747 18.2089 14.8432M8.01181 6.07322C7.7331 6.34865 7.51177 6.67661 7.36064 7.03813C7.20951 7.39965 7.13157 7.78756 7.13134 8.1794V8.1794C7.12923 8.5697 7.20501 8.95649 7.35421 9.31715C7.50342 9.67781 7.72306 10.0051 8.00028 10.2798M5.756 3.77139C5.17045 4.34399 4.70536 5.02794 4.38813 5.78298C4.07089 6.53803 3.90792 7.3489 3.90878 8.16788C3.90607 8.98592 4.06594 9.79635 4.3791 10.5521C4.69226 11.3078 5.15246 11.9938 5.73298 12.5701M3.52322 1.48682C2.63654 2.35668 1.93205 3.39447 1.45088 4.5396C0.969705 5.68474 0.721495 6.91426 0.720737 8.15638V8.15638C0.717418 9.39652 0.960957 10.6249 1.43716 11.77C1.91337 12.915 2.61272 13.9539 3.49445 14.8259" stroke="black" stroke-linecap="round" stroke-linejoin="round" />
<path d="M10.8699 6.52005C10.5353 6.51807 10.2075 6.6155 9.9283 6.79999C9.64907 6.98448 9.43089 7.24774 9.30144 7.55637C9.17199 7.86499 9.13711 8.20508 9.20119 8.53357C9.26527 8.86205 9.42542 9.16414 9.66136 9.40149C9.89731 9.63884 10.1984 9.8008 10.5265 9.86682C10.8546 9.93284 11.1949 9.89995 11.5043 9.77234C11.8137 9.64472 12.0782 9.42812 12.2644 9.14999C12.4505 8.87186 12.5499 8.54473 12.5499 8.21005C12.5499 7.76356 12.3732 7.3352 12.0585 7.01855C11.7437 6.7019 11.3164 6.52269 10.8699 6.52005" fill="black" />
<path d="M10.8594 8.19092V12.691" stroke="black" stroke-linecap="round" stroke-linejoin="round" />
</symbol><symbol viewBox="0 0 15 15" id="icon-planet">
<path d="m7.5 0.1c-4.1 0-7.4 3.3-7.4 7.4s3.3 7.4 7.4 7.4 7.4-3.3 7.4-7.4c-0.1-4.1-3.4-7.4-7.4-7.4zm5.9 6.7h-2.6c-0.2-1.8-0.7-3.5-1.7-5 2.3 0.6 4 2.5 4.3 5zm-7.9 1.4h3.8c-0.2 1.8-0.8 3.5-1.9 4.9-1-1.5-1.7-3.2-1.9-4.9zm0-1.4c0.2-1.8 0.8-3.5 1.9-4.9 1.1 1.4 1.8 3.1 1.9 4.9h-3.8zm0.4-5.1c-1 1.5-1.6 3.2-1.7 5h-2.7c0.3-2.4 2.1-4.3 4.4-5zm-4.4 6.5h2.6c0.2 1.8 0.7 3.5 1.7 5-2.2-0.6-4-2.6-4.3-5zm7.6 5c1-1.5 1.6-3.2 1.7-5h2.6c-0.3 2.4-2 4.4-4.3 5z" />
</symbol><symbol viewBox="0 0 20 13" fill="none" id="icon-shortrange">
<path d="M13.7178 3.51876C14.0761 3.87422 14.3603 4.29727 14.5538 4.76338C14.7474 5.2295 14.8465 5.7294 14.8454 6.23412C14.8442 6.73627 14.7439 7.23323 14.5504 7.69661C14.3569 8.15998 14.074 8.58067 13.7178 8.93462M16.6334 0.551167C17.3854 1.29388 17.982 2.1789 18.3883 3.15461C18.7947 4.13032 19.0026 5.17718 19.0001 6.23412V6.23412C18.9991 7.28789 18.7887 8.33094 18.3812 9.30271C17.9736 10.2745 17.377 11.1556 16.626 11.8948M6.36555 3.48908C6.00355 3.84255 5.71597 4.26489 5.51975 4.73123C5.32353 5.19758 5.22263 5.69849 5.22301 6.20443V6.20443C5.22235 6.70732 5.32096 7.20538 5.5132 7.67007C5.70544 8.13476 5.98753 8.55692 6.34328 8.91236M3.44988 0.521484C2.69764 1.26171 2.0998 2.14387 1.691 3.11684C1.2822 4.08981 1.07057 5.13425 1.06838 6.1896V6.1896C1.06628 7.24294 1.27306 8.28622 1.67674 9.25913C2.08042 10.232 2.673 11.1153 3.4202 11.8577" stroke="black" stroke-linecap="round" stroke-linejoin="round" />
<path d="M10.0386 4.97292C9.79029 4.97145 9.54715 5.04373 9.33999 5.18061C9.13283 5.31748 8.97097 5.51279 8.87493 5.74176C8.7789 5.97073 8.753 6.22305 8.80054 6.46675C8.84807 6.71045 8.9669 6.93457 9.14195 7.11066C9.317 7.28675 9.54039 7.40691 9.78381 7.45589C10.0272 7.50487 10.2797 7.48047 10.5092 7.38579C10.7388 7.29112 10.935 7.13042 11.0731 6.92407C11.2112 6.71773 11.285 6.47503 11.285 6.22673C11.285 5.89548 11.1539 5.57769 10.9204 5.34276C10.6868 5.10784 10.3698 4.97488 10.0386 4.97292Z" fill="black" />
<path d="M10.0371 6.22681V12.0285" stroke="black" stroke-linecap="round" stroke-linejoin="round" />
</symbol><symbol viewBox="0 0 20 25" fill="none" id="icon-touchscreen">
<path d="M6.28725 20.5921H2.91462C2.5182 20.5921 2.13802 20.4299 1.85771 20.1412C1.5774 19.8525 1.41992 19.4609 1.41992 19.0526V2.53947C1.41992 2.13118 1.5774 1.7396 1.85771 1.4509C2.13802 1.16219 2.5182 1 2.91462 1H12.6493C13.0457 1 13.4259 1.16219 13.7062 1.4509C13.9865 1.7396 14.144 2.13118 14.144 2.53947V7.27631M10.618 6.84211C10.4511 6.431 10.2066 6.0581 9.89871 5.745C9.59084 5.4319 9.2257 5.18483 8.82446 5.01811C8.42322 4.85139 7.99385 4.76833 7.56123 4.77373C7.1286 4.77913 6.70131 4.8729 6.30411 5.04959C5.90692 5.22629 5.54771 5.48239 5.2473 5.80308C4.94689 6.12378 4.71125 6.50268 4.55403 6.91784C4.3968 7.333 4.32112 7.77615 4.33136 8.22165C4.34161 8.66715 4.43757 9.10612 4.6137 9.51315M6.93878 15.7895L8.21629 18.8487C8.53355 19.6087 8.99967 20.2931 9.58548 20.8591C10.1713 21.4251 10.8642 21.8606 11.6209 22.1381C11.8229 22.2124 12.008 22.3283 12.1651 22.4787C12.3221 22.6292 12.4478 22.811 12.5343 23.0132L12.9623 24M19.1901 18.1316C19.5666 16.7963 19.4784 15.3676 18.941 14.0921L17.3122 10.1184C17.2592 9.96219 17.1756 9.81888 17.0665 9.69744C16.9574 9.57599 16.8251 9.47903 16.678 9.41258C16.5308 9.34613 16.372 9.31162 16.2113 9.31123C16.0507 9.31084 15.8917 9.34456 15.7442 9.41029C15.5968 9.47602 15.4641 9.57235 15.3544 9.69326C15.2447 9.81417 15.1604 9.95705 15.1068 10.113C15.0531 10.269 15.0312 10.4347 15.0425 10.5997C15.0538 10.7648 15.098 10.9257 15.1723 11.0724M12.662 11.125C12.554 10.8363 12.5587 10.5157 12.6751 10.2304C12.7916 9.94519 13.0107 9.71743 13.2866 9.59492C13.5624 9.47242 13.8736 9.46467 14.155 9.5733C14.4363 9.68193 14.6658 9.89851 14.7955 10.1776L15.4342 11.7434M10.1262 11.1842C10.0518 11.0375 10.0076 10.8766 9.99635 10.7116C9.98507 10.5465 10.0069 10.3808 10.0606 10.2249C10.1143 10.0689 10.1986 9.926 10.3082 9.80509C10.4179 9.68418 10.5506 9.58787 10.6981 9.52214C10.8455 9.45641 11.0045 9.42269 11.1652 9.42308C11.3258 9.42347 11.4847 9.45796 11.6318 9.52441C11.7789 9.59086 11.9112 9.68784 12.0203 9.80929C12.1294 9.93073 12.2131 10.074 12.266 10.2303L13.2944 12.6908M9.96009 16.8355L9.11055 14.796M9.11055 14.796L6.5172 8.60526C6.45681 8.46055 6.42467 8.305 6.42264 8.1475C6.42061 7.98999 6.44873 7.83363 6.50537 7.68731C6.61977 7.39182 6.84345 7.15523 7.12721 7.0296C7.41097 6.90397 7.73156 6.8996 8.01846 7.01742C8.30536 7.13525 8.53506 7.36563 8.65703 7.65789L11.1546 13.6316M6.93878 15.7631C6.87796 15.6189 6.84534 15.4637 6.84276 15.3064C6.84018 15.1491 6.86771 14.9929 6.92376 14.8466C6.97981 14.7003 7.06329 14.5667 7.16944 14.4537C7.27559 14.3406 7.40232 14.2501 7.54241 14.1875C7.68249 14.1249 7.83318 14.0913 7.98587 14.0886C8.13856 14.0859 8.29028 14.1143 8.43233 14.172C8.57439 14.2297 8.70401 14.3157 8.81381 14.4251C8.9236 14.5344 9.01142 14.6649 9.07223 14.8092" stroke="black" stroke-linecap="round" stroke-linejoin="round" />
</symbol><symbol viewBox="0 0 30 30" id="icon-twitter">
		<path d="m18.4 7.5c-2 0-3.7 1.7-3.7 3.7 0 0.3 0 0.6 0.2 0.8-3.1-0.2-5.8-1.7-7.7-3.8-0.3 0.6-0.5 1.2-0.5 2 0 1.2 0.6 2.5 1.7 3.1-0.6 0-1.2-0.2-1.7-0.5 0 1.8 1.2 3.2 2.9 3.7-0.3 0.2-0.6 0.2-0.9 0.2h-0.8c0.5 1.5 1.8 2.6 3.5 2.6-1.2 0.9-2.9 1.5-4.6 1.5h-0.9c1.7 1.1 3.5 1.7 5.7 1.7 6.8 0 10.6-5.7 10.6-10.6v-0.5c0.8-0.5 1.4-1.2 1.8-1.8-0.6 0.3-1.4 0.5-2.2 0.6 0.8-0.5 1.4-1.2 1.7-2-0.8 0.5-1.5 0.8-2.3 0.9-0.8-1.1-1.7-1.6-2.8-1.6z" />
</symbol><symbol viewBox="0 0 20 14" fill="none" id="icon-wifi">
<path d="M12.9499 10.2355C12.5843 9.86643 12.149 9.57356 11.6694 9.37388C11.1897 9.17419 10.6752 9.07169 10.1557 9.07229V9.07229C9.63761 9.07204 9.1246 9.17412 8.64613 9.37269C8.16766 9.57126 7.73312 9.86241 7.36749 10.2294M15.9843 7.23815C15.2253 6.46074 14.3189 5.84257 13.318 5.41983C12.3172 4.99709 11.2421 4.77828 10.1557 4.77621V4.77621C9.07153 4.77529 7.99802 4.98973 6.99744 5.40708C5.99687 5.82442 5.08916 6.43637 4.32702 7.20738M19.0002 4.25305C17.8462 3.08116 16.4702 2.15102 14.9527 1.51695C13.4352 0.882884 11.8065 0.557608 10.1618 0.560142V0.560142C8.51405 0.5541 6.88163 0.876475 5.35988 1.50842C3.83813 2.14037 2.45756 3.06923 1.29883 4.24074" stroke="black" stroke-linecap="round" stroke-linejoin="round" />
<path d="M10.9196 12.9803C10.9196 12.8281 10.8744 12.6794 10.7899 12.5529C10.7054 12.4263 10.5852 12.3277 10.4446 12.2695C10.3041 12.2113 10.1494 12.196 10.0001 12.2257C9.85088 12.2554 9.7138 12.3287 9.6062 12.4363C9.4986 12.5439 9.42533 12.681 9.39564 12.8302C9.36596 12.9794 9.38119 13.1341 9.43943 13.2747C9.49766 13.4153 9.59627 13.5355 9.72279 13.62C9.84931 13.7045 9.99805 13.7497 10.1502 13.7497C10.3543 13.7497 10.5499 13.6686 10.6942 13.5243C10.8385 13.38 10.9196 13.1843 10.9196 12.9803Z" fill="black" />
</symbol><symbol viewBox="0 0 28 10" fill="none" id="icon-wired">
<path d="M20.6234 1.42612C20.8482 1.41693 21.0727 1.44835 21.2863 1.51891C22.4463 1.91662 22.718 3.62677 22.5192 4.88618C22.2901 6.096 21.6041 7.17123 20.6035 7.88886M20.6035 1.42612C20.3788 1.41722 20.1543 1.44863 19.9407 1.51891C18.7807 1.91662 18.509 3.62677 18.7144 4.88618C18.9409 6.09703 19.6275 7.17315 20.6301 7.88886C20.8726 8.08021 21.1322 8.24882 21.4056 8.39261C22.2852 8.85455 23.2778 9.05742 24.2681 8.97764C25.2584 8.89785 26.2057 8.53868 27 7.94188M14.227 1.42612C14.4516 1.41806 14.676 1.44946 14.8898 1.51891C16.0498 1.91662 16.3149 3.62677 16.1161 4.88618C15.8896 6.09703 15.2031 7.17315 14.2005 7.88886M14.2005 1.42612C13.9758 1.41764 13.7513 1.44905 13.5376 1.51891C12.3776 1.91662 12.1125 3.62677 12.3114 4.88618C12.5378 6.09703 13.2244 7.17315 14.227 7.88886M20.6035 7.94188C19.8089 8.53795 18.8617 8.89665 17.8715 8.97642C16.8814 9.0562 15.8889 8.85377 15.0091 8.39261C14.7357 8.24882 14.4761 8.08021 14.2336 7.88886M7.82389 1.42612C8.04859 1.41764 8.27301 1.44905 8.48673 1.51891C9.64671 1.91662 9.91186 3.62677 9.713 4.88618C9.48652 6.09703 8.79998 7.17315 7.79738 7.88886M7.79738 1.42612C7.57271 1.41806 7.34836 1.44946 7.13454 1.51891C5.97456 1.91662 5.70941 3.62677 5.90827 4.88618C6.13475 6.09703 6.82129 7.17315 7.82389 7.88886M14.1938 7.94188C13.4029 8.53449 12.4608 8.89179 11.4758 8.9727C10.4908 9.05361 9.50297 8.85484 8.62594 8.39925C8.35437 8.25233 8.09503 8.08387 7.85041 7.89548C7.60579 8.08387 7.34645 8.25233 7.07488 8.39925C6.1953 8.86118 5.20268 9.06404 4.21238 8.98425C3.22208 8.90447 2.27475 8.54532 1.48047 7.94852" stroke="black" stroke-linecap="round" stroke-linejoin="round" />
</symbol><symbol viewBox="0 0 30 30" id="icon-youtube">
<path d="m24.2 10.4c-0.2-0.8-0.9-1.5-1.7-1.7-1.5-0.5-7.5-0.5-7.5-0.5s-6 0-7.5 0.4c-0.8 0.3-1.5 1-1.7 1.8-0.4 1.5-0.4 4.6-0.4 4.6s0 3.1 0.4 4.6c0.2 0.8 0.9 1.5 1.7 1.7 1.5 0.5 7.5 0.5 7.5 0.5s6 0 7.5-0.4c0.8-0.2 1.5-0.8 1.7-1.7 0.4-1.5 0.4-4.6 0.4-4.6s0-3.2-0.4-4.7zm-11.2 7.5v-5.7l5 2.8-5 2.9z" />
</symbol><symbol id="logo-big" viewBox="0 0 1136.5 211.7">
<g>
	<path d="M59.8,84.7H29.7V28.9h30.5c20.5,0,32.8,10.5,32.8,28C93,73.6,79.7,84.7,59.8,84.7L59.8,84.7z M62.5,2.2H1.1v161.5h28.6
		v-52.3h31c36.8,0,61.6-22.3,61.6-55.4C122.3,22.9,98.8,2.2,62.5,2.2" />
	<path d="M193.3,141.4c-17.8,0-31.2-15.4-31.2-35.8s13.1-35.5,31.2-35.5s31.2,15,31.2,35.5S211.1,141.4,193.3,141.4z M224.3,61.5
		c-9.1-10.4-21.6-16.1-35.7-16.1c-31.2,0-54.7,25.9-54.7,60.2s23.5,60.4,54.7,60.4c14.2,0,27-6.2,36.1-17.4v15.1h27.5v-116h-27.9
		L224.3,61.5L224.3,61.5z" />
	<path d="M343.6,45.4c-13.9,0-25.5,5-33.9,14.6V47.7h-27.3v116.1h27.9V97.4c0-16.2,10.7-27.1,26.5-27.1s22.7,9,22.7,26.9v66.6h27.9
		V94.4C387.5,64.2,370.7,45.4,343.6,45.4z" />
	<path d="M468.1,141.4c-17.8,0-31.2-15.4-31.2-35.8s13.1-35.5,31.2-35.5c18.1,0,31.2,15,31.2,35.5S485.9,141.4,468.1,141.4z
		 M499.1,61.5c-9.1-10.4-21.6-16.1-35.7-16.1c-31.2,0-54.7,25.9-54.7,60.2s23.5,60.4,54.7,60.4c14.2,0,27.1-6.2,36.1-17.4v15.1h27.5
		V2.2h-27.9V61.5L499.1,61.5z" />
	<path d="M609.3,141.4c-17.8,0-31.2-15.4-31.2-35.8s13.1-35.5,31.2-35.5s31.2,15,31.2,35.5S627.1,141.4,609.3,141.4z M640.2,61.5
		c-9.1-10.4-21.6-16.1-35.7-16.1c-31.2,0-54.7,25.9-54.7,60.2s23.5,60.4,54.7,60.4c14.2,0,27.1-6.2,36.1-17.4v15.1h27.5v-116h-27.9
		V61.5L640.2,61.5z" />
	<path d="M759.9,84.7h-30.1V28.9h30.5c20.5,0,32.8,10.5,32.8,28C793.1,73.6,779.7,84.7,759.9,84.7L759.9,84.7z M762.6,2.2h-61.4
		v161.5h28.6v-52.3h31c36.8,0,61.6-22.3,61.6-55.4C822.4,22.9,798.9,2.2,762.6,2.2" />
	<path d="M1035.1,128.2c-0.5,1.2-0.9,2.2-1.2,3.2c-0.3-0.9-0.6-1.9-1.1-3.1l-29.3-80.5h-30.1l41.1,103.8c3,8,2.8,11.9,1.6,15.6
		l-2.3,6.2c-2.6,7.8-7.2,11.5-14.5,11.5c-6.9,0-11-1.8-15.1-4.5l-2.2-1.4l-6.4,24.4l1.3,0.7c6.8,3.6,15.2,5.5,24.4,5.5
		c19.9,0,32.7-10.2,41.6-33l49.5-128.8h-29.6L1035.1,128.2L1035.1,128.2z" />
	<path d="M894,141.4c-17.8,0-31.2-15.4-31.2-35.8s13.1-35.5,31.2-35.5c18.1,0,31.2,15,31.2,35.5S911.8,141.4,894,141.4z M925,61.5
		c-9.1-10.4-21.6-16.1-35.7-16.1c-31.2,0-54.7,25.9-54.7,60.2s23.5,60.4,54.7,60.4c14.2,0,27.1-6.2,36.1-17.4v15.1h27.5v-116H925
		V61.5L925,61.5z" />
	<path d="M1131.9,66.5c-1.1,1.9-2.6,3.5-4.5,4.6c-1.9,1.1-4,1.7-6.3,1.7s-4.6-0.6-6.5-1.7c-1.9-1.1-3.4-2.7-4.5-4.6
		c-1.1-1.9-1.7-4.1-1.7-6.5c0-2.4,0.6-4.7,1.7-6.6c1.1-1.9,2.6-3.4,4.5-4.6c1.9-1.1,4-1.7,6.5-1.7c3.6,0,6.6,1.2,9,3.7
		c2.4,2.5,3.6,5.5,3.6,9.2C1133.6,62.3,1133.1,64.5,1131.9,66.5L1131.9,66.5z M1128.4,47.3c-2.2-1.3-4.6-1.9-7.3-1.9
		c-2.7,0-5.1,0.6-7.3,1.9c-2.2,1.3-3.9,2.9-5.2,5.1c-1.2,2.2-1.9,4.6-1.9,7.4c0,2.8,0.6,5.1,1.9,7.4c1.2,2.2,3,3.9,5.2,5.2
		c2.2,1.3,4.6,1.9,7.4,1.9c2.7,0,5.1-0.6,7.3-1.9c2.1-1.3,3.8-3,5.1-5.2c1.2-2.2,1.9-4.6,1.9-7.3s-0.6-5.3-1.9-7.5
		S1130.5,48.5,1128.4,47.3" />
	<path d="M1118,59.6v-5.4h3.8c1.1,0,1.9,0.2,2.4,0.8c0.5,0.5,0.8,1.2,0.8,2c0,0.9-0.3,1.6-0.8,2.1c-0.5,0.4-1.2,0.7-2.1,0.7
		L1118,59.6L1118,59.6z M1123.3,61.3c0,0-0.1-0.1-0.3-0.2c1.1-0.2,2-0.6,2.8-1.3c0.8-0.7,1.2-1.6,1.2-2.9c0-1.3-0.4-2.4-1.3-3.1
		c-0.9-0.8-2.1-1.2-3.7-1.2h-5.9v14.5h1.9v-5.8h2.6c0.2,0,0.3,0,0.5,0c0.1,0,0.2,0.1,0.4,0.3l3.7,5.4h2.2l-3.9-5.5
		C1123.5,61.6,1123.3,61.3,1123.3,61.3" />
</g>
</symbol><symbol id="logo-small" viewBox="0 0 121.5 23">
<g>
	<path d="M6.1,4.9L6.1,4.9H0.4v13.8h2.7v-4.5H6c3.4,0,5.7-1.9,5.7-4.7C11.6,6.7,9.5,4.9,6.1,4.9z M5.8,12H3.1V7.2h2.8
		c1.9,0,3,0.9,3,2.4C8.9,11,7.7,12,5.8,12z" />
	<path d="M21.1,10L21.1,10c-0.9-0.9-2-1.4-3.3-1.4c-2.9,0-5.1,2.2-5.1,5.2c0,2.9,2.2,5.2,5.1,5.2c1.3,0,2.5-0.5,3.4-1.5v1.3h2.6v-10
		h-2.6V10H21.1z M18.2,16.8c-1.7,0-2.9-1.3-2.9-3.1c0-1.7,1.2-3,2.9-3c1.7,0,2.9,1.3,2.9,3C21.1,15.5,19.9,16.8,18.2,16.8z" />
	<path d="M32.1,8.6L32.1,8.6c-1.3,0-2.4,0.4-3.1,1.2v-1h-2.5v9.9h2.6V13c0-1.4,1-2.3,2.5-2.3c1.5,0,2.1,0.8,2.1,2.3v5.7h2.6v-5.9
		C36.2,10.2,34.7,8.6,32.1,8.6z" />
	<path d="M46.6,10L46.6,10c-0.9-0.9-2-1.4-3.3-1.4c-2.9,0-5.1,2.2-5.1,5.2c0,2.9,2.2,5.2,5.1,5.2c1.3,0,2.5-0.5,3.4-1.5v1.3h2.6V4.9
		h-2.6V10H46.6z M43.7,16.8c-1.7,0-2.9-1.3-2.9-3.1c0-1.7,1.2-3,2.9-3s2.9,1.3,2.9,3C46.6,15.5,45.3,16.8,43.7,16.8z" />
	<path d="M59.7,10L59.7,10c-0.9-0.9-2-1.4-3.3-1.4c-2.9,0-5.1,2.2-5.1,5.2c0,2.9,2.2,5.2,5.1,5.2c1.3,0,2.5-0.5,3.4-1.5v1.3h2.6v-10
		h-2.6V10H59.7z M56.8,16.8c-1.7,0-2.9-1.3-2.9-3.1c0-1.7,1.2-3,2.9-3s2.9,1.3,2.9,3C59.7,15.5,58.4,16.8,56.8,16.8z" />
	<path d="M71,4.9L71,4.9h-5.7v13.8H68v-4.5h2.9c3.4,0,5.7-1.9,5.7-4.7C76.5,6.7,74.3,4.9,71,4.9z M70.7,12h-2.8V7.2h2.8
		c1.9,0,3,0.9,3,2.4C73.8,11,72.6,12,70.7,12z" />
	<path d="M96.2,15.7L96.2,15.7c0,0.1-0.1,0.2-0.1,0.3c0-0.1-0.1-0.2-0.1-0.3l-2.7-6.9h-2.8l3.8,8.9c0.3,0.7,0.3,1,0.1,1.3l-0.2,0.5
		c-0.2,0.7-0.7,1-1.3,1c-0.6,0-1-0.2-1.4-0.4L91.3,20l-0.6,2.1l0.1,0.1c0.6,0.3,1.4,0.5,2.3,0.5c1.8,0,3-0.9,3.9-2.8l4.6-11h-2.7
		L96.2,15.7z" />
	<path d="M86,10L86,10c-0.9-0.9-2-1.4-3.3-1.4c-2.9,0-5.1,2.2-5.1,5.2c0,2.9,2.2,5.2,5.1,5.2c1.3,0,2.5-0.5,3.4-1.5v1.3h2.6v-10
		h-2.6L86,10L86,10z M83.2,16.8c-1.7,0-2.9-1.3-2.9-3.1c0-1.7,1.2-3,2.9-3c1.7,0,2.9,1.3,2.9,3C86.1,15.5,84.8,16.8,83.2,16.8z" />
	<path d="M116.5,6.4c0,0.9-0.8,1.7-1.8,1.7c-0.3,0-0.5,0.2-0.5,0.5s0.2,0.5,0.5,0.5c1.6,0,2.9-1.2,2.9-2.7s-1.3-2.7-2.9-2.7
		s-2.9,1.2-2.9,2.7v2.2c0,0.3,0.2,0.5,0.5,0.5s0.5-0.2,0.5-0.5V6.4c0-0.9,0.8-1.7,1.8-1.7S116.5,5.5,116.5,6.4z" />
	<path d="M114.7,0.3c-3.6,0-6.5,2.7-6.5,6.1v2.2c0,0.3,0.2,0.5,0.5,0.5s0.5-0.2,0.5-0.5V6.4c0-2.8,2.4-5.1,5.4-5.1s5.4,2.3,5.4,5.1
		s-2.4,5.1-5.4,5.1c-0.3,0-0.5,0.2-0.5,0.5s0.2,0.5,0.5,0.5c3.6,0,6.5-2.7,6.5-6.1C121.2,3,118.3,0.3,114.7,0.3z" />
</g>
</symbol></defs></svg>